<?xml version="1.0" standalone="no"?>
<!DOCTYPE svg PUBLIC "-//W3C//DTD SVG 20010904//EN"
 "http://www.w3.org/TR/2001/REC-SVG-20010904/DTD/svg10.dtd">
<svg version="1.0" xmlns="http://www.w3.org/2000/svg"
 width="430.000000pt" height="430.000000pt" viewBox="0 0 430.000000 430.000000"
 preserveAspectRatio="xMidYMid meet">
<metadata>
Created by potrace 1.11, written by Peter Selinger 2001-2013
</metadata>
<g transform="translate(0.000000,430.000000) scale(0.100000,-0.100000)"
fill="#000000" stroke="none">
<path d="M1865 3563 c-223 -29 -448 -115 -620 -238 -277 -197 -456 -487 -541
-875 -16 -71 -19 -128 -19 -345 0 -250 2 -265 29 -380 86 -365 266 -635 550
-822 124 -82 283 -144 470 -185 95 -21 126 -22 496 -23 433 0 448 1 652 66
154 49 376 169 475 256 l32 28 -140 195 c-76 107 -154 216 -172 242 -17 26
-38 50 -45 53 -7 2 -54 -20 -105 -50 -50 -30 -99 -55 -108 -55 -9 0 -31 22
-50 50 -19 27 -40 52 -47 55 -7 3 -37 -10 -65 -28 -164 -104 -339 -174 -407
-162 -73 12 -179 72 -245 138 -129 129 -185 317 -185 622 0 423 109 682 332
788 107 52 130 54 245 22 93 -27 228 -86 285 -126 39 -28 54 -24 95 31 20 28
43 50 49 50 13 0 110 -49 175 -89 l37 -22 64 83 c35 46 104 139 153 208 49 69
99 139 112 157 l24 31 -83 61 c-170 124 -354 205 -558 247 -110 23 -132 24
-485 22 -203 0 -383 -3 -400 -5z"/>
</g>
</svg>
